<mxfile host="65bd71144e" scale="4" border="0">
    <diagram id="-BmAYUr0pwJ2uD23Ls4K" name="Page-1">
        <mxGraphModel dx="708" dy="373" grid="1" gridSize="10" guides="1" tooltips="1" connect="1" arrows="1" fold="1" page="1" pageScale="1" pageWidth="583" pageHeight="827" math="0" shadow="0">
            <root>
                <mxCell id="0"/>
                <mxCell id="1" parent="0"/>
                <mxCell id="130" value="" style="group;fontFamily=Courier New;" vertex="1" connectable="0" parent="1">
                    <mxGeometry x="171" y="80" width="110" height="80" as="geometry"/>
                </mxCell>
                <mxCell id="131" value="Noeud" style="shape=table;startSize=20;container=1;collapsible=0;childLayout=tableLayout;fontFamily=Courier New;fontSize=12;fillColor=#1ba1e2;strokeColor=#006EAF;fontColor=#ffffff;" vertex="1" parent="130">
                    <mxGeometry x="70" width="40" height="80" as="geometry"/>
                </mxCell>
                <mxCell id="132" value="" style="shape=partialRectangle;collapsible=0;dropTarget=0;pointerEvents=0;fillColor=none;top=0;left=0;bottom=0;right=0;points=[[0,0.5],[1,0.5]];portConstraint=eastwest;fontFamily=Courier New;" vertex="1" parent="131">
                    <mxGeometry y="20" width="40" height="20" as="geometry"/>
                </mxCell>
                <mxCell id="133" value="&quot;A&quot;" style="shape=partialRectangle;html=1;whiteSpace=wrap;connectable=0;overflow=hidden;fillColor=none;top=0;left=0;bottom=0;right=0;pointerEvents=1;fontFamily=Courier New;" vertex="1" parent="132">
                    <mxGeometry width="40" height="20" as="geometry">
                        <mxRectangle width="40" height="20" as="alternateBounds"/>
                    </mxGeometry>
                </mxCell>
                <mxCell id="134" value="" style="shape=partialRectangle;collapsible=0;dropTarget=0;pointerEvents=0;fillColor=none;top=0;left=0;bottom=0;right=0;points=[[0,0.5],[1,0.5]];portConstraint=eastwest;fontFamily=Courier New;" vertex="1" parent="131">
                    <mxGeometry y="40" width="40" height="20" as="geometry"/>
                </mxCell>
                <mxCell id="135" value="" style="shape=partialRectangle;html=1;whiteSpace=wrap;connectable=0;overflow=hidden;fillColor=none;top=0;left=0;bottom=0;right=0;pointerEvents=1;fontFamily=Courier New;" vertex="1" parent="134">
                    <mxGeometry width="40" height="20" as="geometry">
                        <mxRectangle width="40" height="20" as="alternateBounds"/>
                    </mxGeometry>
                </mxCell>
                <mxCell id="136" value="" style="shape=partialRectangle;collapsible=0;dropTarget=0;pointerEvents=0;fillColor=none;top=0;left=0;bottom=0;right=0;points=[[0,0.5],[1,0.5]];portConstraint=eastwest;fontFamily=Courier New;" vertex="1" parent="131">
                    <mxGeometry y="60" width="40" height="20" as="geometry"/>
                </mxCell>
                <mxCell id="137" value="" style="shape=partialRectangle;html=1;whiteSpace=wrap;connectable=0;overflow=hidden;fillColor=none;top=0;left=0;bottom=0;right=0;pointerEvents=1;fontFamily=Courier New;" vertex="1" parent="136">
                    <mxGeometry width="40" height="20" as="geometry">
                        <mxRectangle width="40" height="20" as="alternateBounds"/>
                    </mxGeometry>
                </mxCell>
                <mxCell id="138" value="valeur" style="text;html=1;align=right;verticalAlign=middle;resizable=0;points=[];autosize=1;strokeColor=none;fillColor=none;fontSize=14;fontFamily=Courier New;" vertex="1" parent="130">
                    <mxGeometry y="20" width="70" height="20" as="geometry"/>
                </mxCell>
                <mxCell id="139" value="gauche" style="text;html=1;align=right;verticalAlign=middle;resizable=0;points=[];autosize=1;strokeColor=none;fillColor=none;fontSize=14;fontFamily=Courier New;" vertex="1" parent="130">
                    <mxGeometry y="40" width="70" height="20" as="geometry"/>
                </mxCell>
                <mxCell id="140" value="droit" style="text;html=1;align=right;verticalAlign=middle;resizable=0;points=[];autosize=1;strokeColor=none;fillColor=none;fontSize=14;fontFamily=Courier New;" vertex="1" parent="130">
                    <mxGeometry x="10" y="60" width="60" height="20" as="geometry"/>
                </mxCell>
                <mxCell id="141" value="" style="rounded=0;whiteSpace=wrap;html=1;fillColor=none;strokeColor=none;fontFamily=Courier New;" vertex="1" parent="130">
                    <mxGeometry x="70" y="50" width="40" height="20" as="geometry"/>
                </mxCell>
                <mxCell id="142" value="" style="endArrow=oval;html=1;endFill=1;startArrow=classic;startFill=1;fillColor=#1ba1e2;strokeColor=#006EAF;exitX=1;exitY=0;exitDx=0;exitDy=0;fontFamily=Courier New;" edge="1" parent="130" source="144">
                    <mxGeometry width="50" height="50" relative="1" as="geometry">
                        <mxPoint x="39" y="136.1971830985916" as="sourcePoint"/>
                        <mxPoint x="90" y="50" as="targetPoint"/>
                    </mxGeometry>
                </mxCell>
                <mxCell id="143" value="" style="group;fontFamily=Courier New;" vertex="1" connectable="0" parent="1">
                    <mxGeometry x="110" y="180" width="110" height="80" as="geometry"/>
                </mxCell>
                <mxCell id="144" value="Noeud" style="shape=table;startSize=20;container=1;collapsible=0;childLayout=tableLayout;fontFamily=Courier New;fontSize=12;fillColor=#1ba1e2;strokeColor=#006EAF;fontColor=#ffffff;" vertex="1" parent="143">
                    <mxGeometry x="70" width="40" height="80" as="geometry"/>
                </mxCell>
                <mxCell id="145" value="" style="shape=partialRectangle;collapsible=0;dropTarget=0;pointerEvents=0;fillColor=none;top=0;left=0;bottom=0;right=0;points=[[0,0.5],[1,0.5]];portConstraint=eastwest;fontFamily=Courier New;" vertex="1" parent="144">
                    <mxGeometry y="20" width="40" height="20" as="geometry"/>
                </mxCell>
                <mxCell id="146" value="&quot;B&quot;" style="shape=partialRectangle;html=1;whiteSpace=wrap;connectable=0;overflow=hidden;fillColor=none;top=0;left=0;bottom=0;right=0;pointerEvents=1;fontFamily=Courier New;" vertex="1" parent="145">
                    <mxGeometry width="40" height="20" as="geometry">
                        <mxRectangle width="40" height="20" as="alternateBounds"/>
                    </mxGeometry>
                </mxCell>
                <mxCell id="147" value="" style="shape=partialRectangle;collapsible=0;dropTarget=0;pointerEvents=0;fillColor=none;top=0;left=0;bottom=0;right=0;points=[[0,0.5],[1,0.5]];portConstraint=eastwest;fontFamily=Courier New;" vertex="1" parent="144">
                    <mxGeometry y="40" width="40" height="20" as="geometry"/>
                </mxCell>
                <mxCell id="148" value="" style="shape=partialRectangle;html=1;whiteSpace=wrap;connectable=0;overflow=hidden;fillColor=none;top=0;left=0;bottom=0;right=0;pointerEvents=1;fontFamily=Courier New;" vertex="1" parent="147">
                    <mxGeometry width="40" height="20" as="geometry">
                        <mxRectangle width="40" height="20" as="alternateBounds"/>
                    </mxGeometry>
                </mxCell>
                <mxCell id="149" value="" style="shape=partialRectangle;collapsible=0;dropTarget=0;pointerEvents=0;fillColor=none;top=0;left=0;bottom=0;right=0;points=[[0,0.5],[1,0.5]];portConstraint=eastwest;fontFamily=Courier New;" vertex="1" parent="144">
                    <mxGeometry y="60" width="40" height="20" as="geometry"/>
                </mxCell>
                <mxCell id="150" value="" style="shape=partialRectangle;html=1;whiteSpace=wrap;connectable=0;overflow=hidden;fillColor=none;top=0;left=0;bottom=0;right=0;pointerEvents=1;fontFamily=Courier New;" vertex="1" parent="149">
                    <mxGeometry width="40" height="20" as="geometry">
                        <mxRectangle width="40" height="20" as="alternateBounds"/>
                    </mxGeometry>
                </mxCell>
                <mxCell id="151" value="valeur" style="text;html=1;align=right;verticalAlign=middle;resizable=0;points=[];autosize=1;strokeColor=none;fillColor=none;fontSize=14;fontFamily=Courier New;" vertex="1" parent="143">
                    <mxGeometry y="20" width="70" height="20" as="geometry"/>
                </mxCell>
                <mxCell id="152" value="gauche" style="text;html=1;align=right;verticalAlign=middle;resizable=0;points=[];autosize=1;strokeColor=none;fillColor=none;fontSize=14;fontFamily=Courier New;" vertex="1" parent="143">
                    <mxGeometry y="40" width="70" height="20" as="geometry"/>
                </mxCell>
                <mxCell id="153" value="droit" style="text;html=1;align=right;verticalAlign=middle;resizable=0;points=[];autosize=1;strokeColor=none;fillColor=none;fontSize=14;fontFamily=Courier New;" vertex="1" parent="143">
                    <mxGeometry x="10" y="60" width="60" height="20" as="geometry"/>
                </mxCell>
                <mxCell id="154" value="" style="rounded=0;whiteSpace=wrap;html=1;fillColor=none;strokeColor=none;fontFamily=Courier New;" vertex="1" parent="143">
                    <mxGeometry x="70" y="50" width="40" height="20" as="geometry"/>
                </mxCell>
                <mxCell id="156" value="" style="group;fontFamily=Courier New;" vertex="1" connectable="0" parent="1">
                    <mxGeometry x="230" y="180" width="110" height="80" as="geometry"/>
                </mxCell>
                <mxCell id="157" value="Noeud" style="shape=table;startSize=20;container=1;collapsible=0;childLayout=tableLayout;fontFamily=Courier New;fontSize=12;fillColor=#1ba1e2;strokeColor=#006EAF;fontColor=#ffffff;" vertex="1" parent="156">
                    <mxGeometry x="70" width="40" height="80" as="geometry"/>
                </mxCell>
                <mxCell id="158" value="" style="shape=partialRectangle;collapsible=0;dropTarget=0;pointerEvents=0;fillColor=none;top=0;left=0;bottom=0;right=0;points=[[0,0.5],[1,0.5]];portConstraint=eastwest;fontFamily=Courier New;" vertex="1" parent="157">
                    <mxGeometry y="20" width="40" height="20" as="geometry"/>
                </mxCell>
                <mxCell id="159" value="&quot;D&quot;" style="shape=partialRectangle;html=1;whiteSpace=wrap;connectable=0;overflow=hidden;fillColor=none;top=0;left=0;bottom=0;right=0;pointerEvents=1;fontFamily=Courier New;" vertex="1" parent="158">
                    <mxGeometry width="40" height="20" as="geometry">
                        <mxRectangle width="40" height="20" as="alternateBounds"/>
                    </mxGeometry>
                </mxCell>
                <mxCell id="160" value="" style="shape=partialRectangle;collapsible=0;dropTarget=0;pointerEvents=0;fillColor=none;top=0;left=0;bottom=0;right=0;points=[[0,0.5],[1,0.5]];portConstraint=eastwest;fontFamily=Courier New;" vertex="1" parent="157">
                    <mxGeometry y="40" width="40" height="20" as="geometry"/>
                </mxCell>
                <mxCell id="161" value="" style="shape=partialRectangle;html=1;whiteSpace=wrap;connectable=0;overflow=hidden;fillColor=none;top=0;left=0;bottom=0;right=0;pointerEvents=1;fontFamily=Courier New;" vertex="1" parent="160">
                    <mxGeometry width="40" height="20" as="geometry">
                        <mxRectangle width="40" height="20" as="alternateBounds"/>
                    </mxGeometry>
                </mxCell>
                <mxCell id="162" value="" style="shape=partialRectangle;collapsible=0;dropTarget=0;pointerEvents=0;fillColor=none;top=0;left=0;bottom=0;right=0;points=[[0,0.5],[1,0.5]];portConstraint=eastwest;fontFamily=Courier New;" vertex="1" parent="157">
                    <mxGeometry y="60" width="40" height="20" as="geometry"/>
                </mxCell>
                <mxCell id="163" value="" style="shape=partialRectangle;html=1;whiteSpace=wrap;connectable=0;overflow=hidden;fillColor=none;top=0;left=0;bottom=0;right=0;pointerEvents=1;fontFamily=Courier New;" vertex="1" parent="162">
                    <mxGeometry width="40" height="20" as="geometry">
                        <mxRectangle width="40" height="20" as="alternateBounds"/>
                    </mxGeometry>
                </mxCell>
                <mxCell id="164" value="valeur" style="text;html=1;align=right;verticalAlign=middle;resizable=0;points=[];autosize=1;strokeColor=none;fillColor=none;fontSize=14;fontFamily=Courier New;" vertex="1" parent="156">
                    <mxGeometry y="20" width="70" height="20" as="geometry"/>
                </mxCell>
                <mxCell id="165" value="gauche" style="text;html=1;align=right;verticalAlign=middle;resizable=0;points=[];autosize=1;strokeColor=none;fillColor=none;fontSize=14;fontFamily=Courier New;" vertex="1" parent="156">
                    <mxGeometry y="40" width="70" height="20" as="geometry"/>
                </mxCell>
                <mxCell id="166" value="droit" style="text;html=1;align=right;verticalAlign=middle;resizable=0;points=[];autosize=1;strokeColor=none;fillColor=none;fontSize=14;fontFamily=Courier New;" vertex="1" parent="156">
                    <mxGeometry x="10" y="60" width="60" height="20" as="geometry"/>
                </mxCell>
                <mxCell id="167" value="" style="rounded=0;whiteSpace=wrap;html=1;fillColor=none;strokeColor=none;fontFamily=Courier New;" vertex="1" parent="156">
                    <mxGeometry x="70" y="50" width="40" height="20" as="geometry"/>
                </mxCell>
                <mxCell id="169" value="" style="group;fontFamily=Courier New;" vertex="1" connectable="0" parent="1">
                    <mxGeometry x="170" y="280" width="110" height="80" as="geometry"/>
                </mxCell>
                <mxCell id="170" value="Noeud" style="shape=table;startSize=20;container=1;collapsible=0;childLayout=tableLayout;fontFamily=Courier New;fontSize=12;fillColor=#1ba1e2;strokeColor=#006EAF;fontColor=#ffffff;" vertex="1" parent="169">
                    <mxGeometry x="70" width="40" height="80" as="geometry"/>
                </mxCell>
                <mxCell id="171" value="" style="shape=partialRectangle;collapsible=0;dropTarget=0;pointerEvents=0;fillColor=none;top=0;left=0;bottom=0;right=0;points=[[0,0.5],[1,0.5]];portConstraint=eastwest;fontFamily=Courier New;" vertex="1" parent="170">
                    <mxGeometry y="20" width="40" height="20" as="geometry"/>
                </mxCell>
                <mxCell id="172" value="&quot;C&quot;" style="shape=partialRectangle;html=1;whiteSpace=wrap;connectable=0;overflow=hidden;fillColor=none;top=0;left=0;bottom=0;right=0;pointerEvents=1;fontFamily=Courier New;" vertex="1" parent="171">
                    <mxGeometry width="40" height="20" as="geometry">
                        <mxRectangle width="40" height="20" as="alternateBounds"/>
                    </mxGeometry>
                </mxCell>
                <mxCell id="173" value="" style="shape=partialRectangle;collapsible=0;dropTarget=0;pointerEvents=0;fillColor=none;top=0;left=0;bottom=0;right=0;points=[[0,0.5],[1,0.5]];portConstraint=eastwest;fontFamily=Courier New;" vertex="1" parent="170">
                    <mxGeometry y="40" width="40" height="20" as="geometry"/>
                </mxCell>
                <mxCell id="174" value="" style="shape=partialRectangle;html=1;whiteSpace=wrap;connectable=0;overflow=hidden;fillColor=none;top=0;left=0;bottom=0;right=0;pointerEvents=1;fontFamily=Courier New;" vertex="1" parent="173">
                    <mxGeometry width="40" height="20" as="geometry">
                        <mxRectangle width="40" height="20" as="alternateBounds"/>
                    </mxGeometry>
                </mxCell>
                <mxCell id="175" value="" style="shape=partialRectangle;collapsible=0;dropTarget=0;pointerEvents=0;fillColor=none;top=0;left=0;bottom=0;right=0;points=[[0,0.5],[1,0.5]];portConstraint=eastwest;fontFamily=Courier New;" vertex="1" parent="170">
                    <mxGeometry y="60" width="40" height="20" as="geometry"/>
                </mxCell>
                <mxCell id="176" value="" style="shape=partialRectangle;html=1;whiteSpace=wrap;connectable=0;overflow=hidden;fillColor=none;top=0;left=0;bottom=0;right=0;pointerEvents=1;fontFamily=Courier New;" vertex="1" parent="175">
                    <mxGeometry width="40" height="20" as="geometry">
                        <mxRectangle width="40" height="20" as="alternateBounds"/>
                    </mxGeometry>
                </mxCell>
                <mxCell id="177" value="valeur" style="text;html=1;align=right;verticalAlign=middle;resizable=0;points=[];autosize=1;strokeColor=none;fillColor=none;fontSize=14;fontFamily=Courier New;" vertex="1" parent="169">
                    <mxGeometry y="20" width="70" height="20" as="geometry"/>
                </mxCell>
                <mxCell id="178" value="gauche" style="text;html=1;align=right;verticalAlign=middle;resizable=0;points=[];autosize=1;strokeColor=none;fillColor=none;fontSize=14;fontFamily=Courier New;" vertex="1" parent="169">
                    <mxGeometry y="40" width="70" height="20" as="geometry"/>
                </mxCell>
                <mxCell id="179" value="droit" style="text;html=1;align=right;verticalAlign=middle;resizable=0;points=[];autosize=1;strokeColor=none;fillColor=none;fontSize=14;fontFamily=Courier New;" vertex="1" parent="169">
                    <mxGeometry x="10" y="60" width="60" height="20" as="geometry"/>
                </mxCell>
                <mxCell id="180" value="" style="rounded=0;whiteSpace=wrap;html=1;fillColor=none;strokeColor=none;fontFamily=Courier New;" vertex="1" parent="169">
                    <mxGeometry x="70" y="50" width="40" height="20" as="geometry"/>
                </mxCell>
                <mxCell id="168" value="" style="endArrow=oval;html=1;endFill=1;startArrow=classic;startFill=1;fillColor=#1ba1e2;strokeColor=#006EAF;entryX=0.5;entryY=1;entryDx=0;entryDy=0;exitX=0;exitY=0;exitDx=0;exitDy=0;fontFamily=Courier New;" edge="1" parent="1" source="157" target="141">
                    <mxGeometry width="50" height="50" relative="1" as="geometry">
                        <mxPoint x="300" y="300" as="sourcePoint"/>
                        <mxPoint x="350" y="210" as="targetPoint"/>
                    </mxGeometry>
                </mxCell>
                <mxCell id="155" value="" style="endArrow=oval;html=1;endFill=1;startArrow=classic;startFill=1;fillColor=#1ba1e2;strokeColor=#006EAF;exitX=0;exitY=0;exitDx=0;exitDy=0;entryX=0.5;entryY=1;entryDx=0;entryDy=0;fontFamily=Courier New;" edge="1" parent="1" source="170" target="154">
                    <mxGeometry width="50" height="50" relative="1" as="geometry">
                        <mxPoint x="170" y="320" as="sourcePoint"/>
                        <mxPoint x="220" y="230" as="targetPoint"/>
                    </mxGeometry>
                </mxCell>
            </root>
        </mxGraphModel>
    </diagram>
</mxfile>